<?xml version="1.0" encoding="UTF-8"?>
<!DOCTYPE svg PUBLIC "-//W3C//DTD SVG 1.1//EN" "http://www.w3.org/Graphics/SVG/1.1/DTD/svg11.dtd">
<svg xmlns="http://www.w3.org/2000/svg" version="1.1" width="1279px" height="477px" style="shape-rendering:geometricPrecision; text-rendering:geometricPrecision; image-rendering:optimizeQuality; fill-rule:evenodd; clip-rule:evenodd" xmlns:xlink="http://www.w3.org/1999/xlink">
<g><path style="opacity:0.982" fill="#4471c4" d="M 113.5,116.5 C 186.834,116.333 260.167,116.5 333.5,117C 337.058,118.493 337.391,120.66 334.5,123.5C 334.709,124.086 335.043,124.586 335.5,125C 339.194,125.801 342.694,126.968 346,128.5C 346.624,130.464 346.124,132.131 344.5,133.5C 347.122,135.411 349.289,137.745 351,140.5C 352.187,142.044 352.52,143.711 352,145.5C 343.296,154.536 334.962,163.869 327,173.5C 319.864,183.603 312.364,193.436 304.5,203C 303.584,203.374 302.75,203.874 302,204.5C 297.611,201.755 294.111,198.255 291.5,194C 287.759,192.262 284.592,189.762 282,186.5C 281.383,185.551 281.549,184.718 282.5,184C 280.246,182.623 278.08,181.123 276,179.5C 276.083,176.881 276.25,174.214 276.5,171.5C 269.922,170.053 263.255,169.387 256.5,169.5C 238.239,225.951 219.572,282.284 200.5,338.5C 205.107,351.32 210.107,363.986 215.5,376.5C 215.167,377.167 214.833,377.833 214.5,378.5C 181.505,379.667 148.505,379.833 115.5,379C 113.924,376.049 113.257,372.883 113.5,369.5C 110.428,369.817 107.428,369.484 104.5,368.5C 103.349,364.577 102.515,360.577 102,356.5C 100.266,355.751 98.433,355.251 96.5,355C 95.4464,353.612 95.2797,352.112 96,350.5C 107,341.833 118,333.167 129,324.5C 146.111,273.168 163.611,222.001 181.5,171C 170.921,171.373 163.088,176.207 158,185.5C 155.5,190.5 153,195.5 150.5,200.5C 145.198,201.663 139.864,201.829 134.5,201C 133.289,199.887 133.289,198.72 134.5,197.5C 131.505,196.867 128.672,195.867 126,194.5C 124.409,192.073 123.575,189.407 123.5,186.5C 121.08,186.708 118.747,186.374 116.5,185.5C 115.493,165.731 113.493,146.064 110.5,126.5C 110.585,122.814 111.585,119.481 113.5,116.5 Z"/></g>
<g><path style="opacity:1" fill="#6503cb" d="M 180.5,348.5 C 156.006,349.498 131.339,349.831 106.5,349.5C 115.146,342.364 123.98,335.364 133,328.5C 152.5,271.333 172,214.167 191.5,157C 178.628,152.894 165.961,154.228 153.5,161C 145.843,167.982 140.176,176.315 136.5,186C 134.421,186.808 132.421,186.641 130.5,185.5C 142.169,155.321 164.169,142.655 196.5,147.5C 196.896,144.956 196.229,142.789 194.5,141C 160.43,134.688 137.43,147.522 125.5,179.5C 123.955,180.452 122.288,180.785 120.5,180.5C 120.666,172.16 120.5,163.827 120,155.5C 118.176,144.558 117.009,133.558 116.5,122.5C 187.17,122.167 257.836,122.5 328.5,123.5C 312.969,140.25 298.635,157.917 285.5,176.5C 284.311,177.429 282.978,177.762 281.5,177.5C 281.805,172.238 281.471,167.072 280.5,162C 268.833,156.111 256.5,153.778 243.5,155C 223.246,212.761 203.58,270.761 184.5,329C 188.873,340.62 193.54,352.12 198.5,363.5C 168.507,364.5 138.507,364.833 108.5,364.5C 108.682,362.409 108.348,360.409 107.5,358.5C 135.161,357.667 162.827,357.167 190.5,357C 191.517,355.951 191.684,354.784 191,353.5C 188.5,350.333 186,347.167 183.5,344C 179.707,343.513 178.707,345.013 180.5,348.5 Z"/></g>
<g><path style="opacity:1" fill="#6311cb" d="M 332.5,130.5 C 334.134,131.207 335.468,132.373 336.5,134C 321.113,149.637 307.28,166.471 295,184.5C 292.426,188.619 290.26,188.452 288.5,184C 300.781,164.218 315.447,146.385 332.5,130.5 Z"/></g>
<g><path style="opacity:1" fill="#456fc4" d="M 242.5,139.5 C 252.864,138.728 262.864,140.228 272.5,144C 274.211,145.133 274.711,146.633 274,148.5C 262.094,147.34 250.094,147.34 238,148.5C 217.265,209.537 196.432,270.537 175.5,331.5C 172.507,332.714 170.84,331.548 170.5,328C 191.941,266.01 212.774,203.844 233,141.5C 236.27,140.868 239.437,140.201 242.5,139.5 Z"/></g>
<g><path style="opacity:0.983" fill="#4471c4" d="M 1278.5,254.5 C 1278.5,256.167 1278.5,257.833 1278.5,259.5C 1273.34,297.649 1256.68,329.816 1228.5,356C 1209.63,370.183 1188.29,377.849 1164.5,379C 1144.5,379.667 1124.5,379.667 1104.5,379C 1103.55,375.943 1103.22,372.777 1103.5,369.5C 1102.13,369.343 1100.79,369.51 1099.5,370C 1097.2,373.297 1094.54,376.297 1091.5,379C 1046.17,379.667 1000.83,379.667 955.5,379C 954.549,375.943 954.216,372.777 954.5,369.5C 951.482,369.665 948.482,369.498 945.5,369C 944.604,365.572 943.938,362.072 943.5,358.5C 940.886,358.295 938.552,358.295 936.5,358.5C 939.167,364.5 941.833,370.5 944.5,376.5C 944.167,377.167 943.833,377.833 943.5,378.5C 919.84,379.666 896.174,379.833 872.5,379C 871.549,375.943 871.216,372.777 871.5,369.5C 868.482,369.665 865.482,369.498 862.5,369C 861.773,367.601 861.273,366.101 861,364.5C 857.638,369.03 854.471,373.697 851.5,378.5C 844.944,379.81 838.444,379.81 832,378.5C 831.699,375.493 831.865,372.493 832.5,369.5C 829.482,369.335 826.482,369.502 823.5,370C 825.414,372.882 825.748,375.882 824.5,379C 778.167,379.667 731.833,379.667 685.5,379C 683.924,376.049 683.257,372.883 683.5,369.5C 675.524,371.367 672.19,368.367 673.5,360.5C 671.345,360.628 669.345,360.128 667.5,359C 666.483,357.951 666.316,356.784 667,355.5C 673.69,349.976 680.523,344.642 687.5,339.5C 688.631,337.926 688.798,336.259 688,334.5C 684.167,338.333 680.333,342.167 676.5,346C 672.058,346.645 668.391,345.311 665.5,342C 666.747,340.542 666.747,339.042 665.5,337.5C 662.121,336.538 658.954,335.205 656,333.5C 656.796,330.381 655.796,327.715 653,325.5C 647.723,332.881 644.556,341.048 643.5,350C 644.026,356.225 645.859,362.058 649,367.5C 650.31,371.174 650.477,374.841 649.5,378.5C 625.507,379.666 601.507,379.833 577.5,379C 576.62,377.644 576.286,376.144 576.5,374.5C 568.042,376.485 559.708,378.985 551.5,382C 540.32,386.837 529.153,391.67 518,396.5C 514.767,395.741 512.6,393.741 511.5,390.5C 509.829,388.022 507.496,386.522 504.5,386C 502.803,382.428 500.303,379.595 497,377.5C 485.558,378.822 473.892,379.489 462,379.5C 450.5,379.333 439,379.167 427.5,379C 426.549,375.943 426.216,372.777 426.5,369.5C 423.102,369.82 419.768,369.487 416.5,368.5C 415.607,365.916 415.274,363.249 415.5,360.5C 411.212,360.442 409.879,358.442 411.5,354.5C 418.241,348.714 425.074,343.047 432,337.5C 435.639,328.426 438.139,319.093 439.5,309.5C 436.223,309.784 433.057,309.451 430,308.5C 429.482,303.667 428.815,299 428,294.5C 431.708,288.249 435.541,282.083 439.5,276C 444.155,275.501 448.821,275.334 453.5,275.5C 458.428,259.05 463.761,242.717 469.5,226.5C 469.253,223.918 467.92,223.085 465.5,224C 459.5,228 453.5,232 447.5,236C 436.819,265.708 426.319,295.541 416,325.5C 398.749,372.878 365.583,390.378 316.5,378C 312.664,375.916 308.997,373.583 305.5,371C 300.023,365.854 294.856,360.354 290,354.5C 288.418,352.376 288.251,350.21 289.5,348C 287.932,345.696 286.765,343.196 286,340.5C 284.835,329.298 285.835,318.298 289,307.5C 298.834,277.998 308.667,248.498 318.5,219C 316.079,213.325 313.245,207.825 310,202.5C 309.175,200.299 309.675,198.466 311.5,197C 332.167,196.333 352.833,196.333 373.5,197C 376.416,197.827 377.083,199.494 375.5,202C 376.029,203.559 376.696,205.059 377.5,206.5C 380.366,207.208 383.2,207.875 386,208.5C 385.719,212.049 386.552,215.549 388.5,219C 382.399,224.149 376.566,229.649 371,235.5C 361.062,265.982 350.728,296.316 340,326.5C 339.664,330.689 339.164,334.856 338.5,339C 338.833,339.833 339.167,340.667 339.5,341.5C 347.22,341.237 354.553,339.403 361.5,336C 366.55,329.407 370.717,322.24 374,314.5C 384.864,284.242 395.531,253.909 406,223.5C 406.667,221.833 406.667,220.167 406,218.5C 401.993,212.488 398.493,206.155 395.5,199.5C 396.09,198.201 397.09,197.368 398.5,197C 417.167,196.333 435.833,196.333 454.5,197C 458.163,198.751 458.497,201.084 455.5,204C 455.735,204.873 456.069,205.707 456.5,206.5C 459.785,207.324 463.118,207.824 466.5,208C 467.071,209.205 467.738,210.372 468.5,211.5C 497.684,195.689 528.35,191.522 560.5,199C 567.76,201.601 573.927,205.768 579,211.5C 580.388,210.446 581.888,210.28 583.5,211C 585.869,213.57 587.869,216.404 589.5,219.5C 598.707,224.232 603.04,231.899 602.5,242.5C 599.605,263.905 588.605,279.739 569.5,290C 563.812,293.347 557.812,295.847 551.5,297.5C 552.52,316.587 558.02,334.253 568,350.5C 594.404,333.788 614.571,311.955 628.5,285C 625.091,283.26 621.424,282.26 617.5,282C 615.637,280.582 615.137,278.749 616,276.5C 622.386,270.049 628.053,263.049 633,255.5C 637.059,251.77 641.392,248.436 646,245.5C 649.051,246.546 651.551,248.379 653.5,251C 654.167,251.667 654.833,251.667 655.5,251C 663.906,239.597 671.906,227.931 679.5,216C 677.805,211.443 675.972,206.943 674,202.5C 673.202,200.741 673.369,199.074 674.5,197.5C 695.123,196.345 715.79,196.179 736.5,197C 740.551,199.018 744.217,201.518 747.5,204.5C 747.167,205.167 746.833,205.833 746.5,206.5C 749.502,209.003 752.835,211.003 756.5,212.5C 757.94,215.228 757.274,217.395 754.5,219C 750,222.833 745.5,226.667 741,230.5C 740.169,236.859 740.336,243.193 741.5,249.5C 744.685,253.016 748.518,255.683 753,257.5C 753.642,259.762 754.475,261.929 755.5,264C 758.196,264.765 760.696,265.932 763,267.5C 763.372,278.369 764.206,289.203 765.5,300C 765.456,301.764 765.122,303.431 764.5,305C 757.14,305.053 749.807,304.553 742.5,303.5C 743.001,318.848 743.834,334.182 745,349.5C 745.833,350.5 746.667,351.5 747.5,352.5C 753.998,348.083 760.665,343.916 767.5,340C 773.85,334.807 778.35,328.307 781,320.5C 792.333,287.167 803.667,253.833 815,220.5C 815.667,219.167 815.667,217.833 815,216.5C 811.776,211.219 808.943,205.719 806.5,200C 806.82,198.347 807.82,197.347 809.5,197C 831.833,196.333 854.167,196.333 876.5,197C 878.442,203.277 882.609,207.11 889,208.5C 888.718,211.663 890.051,214.329 893,216.5C 893.982,217.759 894.315,219.092 894,220.5C 888.172,224.748 882.172,228.748 876,232.5C 875.509,246.518 875.176,260.518 875,274.5C 887.42,255.993 900.087,237.659 913,219.5C 911.512,212.715 909.012,206.215 905.5,200C 906.047,199.075 906.713,198.242 907.5,197.5C 930.167,196.167 952.833,196.167 975.5,197.5C 977.147,200.454 976.481,202.62 973.5,204C 977.5,206.743 982,208.243 987,208.5C 987.165,210.678 986.332,212.511 984.5,214C 986.398,216.388 988.065,218.888 989.5,221.5C 989.471,223.029 988.804,224.196 987.5,225C 982.333,228.167 977.167,231.333 972,234.5C 966.895,249.143 962.229,263.809 958,278.5C 965.096,269.056 974.429,263.39 986,261.5C 990.636,247.259 995.469,233.092 1000.5,219C 997.381,213.263 993.881,207.763 990,202.5C 989.137,200.251 989.637,198.418 991.5,197C 1035.83,196.333 1080.17,196.333 1124.5,197C 1126.72,198.669 1127.05,200.669 1125.5,203C 1125.9,204.473 1126.57,205.806 1127.5,207C 1130.48,207.498 1133.48,207.665 1136.5,207.5C 1136.74,209.467 1136.41,211.301 1135.5,213C 1138.37,216.601 1138.87,220.434 1137,224.5C 1124.8,235.034 1113.63,246.534 1103.5,259C 1102.5,259.667 1101.5,259.667 1100.5,259C 1092.88,252.667 1085.88,245.667 1079.5,238C 1070.53,236.21 1061.53,236.043 1052.5,237.5C 1050.2,245.217 1048.03,252.884 1046,260.5C 1054.04,253.453 1062.38,246.787 1071,240.5C 1073.45,243.281 1076.45,245.281 1080,246.5C 1080.49,248.134 1080.66,249.801 1080.5,251.5C 1081.55,251.351 1082.55,251.517 1083.5,252C 1086.17,254.333 1088.83,256.667 1091.5,259C 1084.47,277.593 1078.14,296.426 1072.5,315.5C 1079.01,315.013 1082.34,318.013 1082.5,324.5C 1085.16,325.499 1087.83,326.499 1090.5,327.5C 1091.89,334.745 1094.06,341.745 1097,348.5C 1101.62,345.55 1105.95,342.216 1110,338.5C 1123.54,298.055 1137.37,257.721 1151.5,217.5C 1149.26,211.627 1146.93,205.793 1144.5,200C 1144.82,198.347 1145.82,197.347 1147.5,197C 1171.9,195.919 1196.23,196.586 1220.5,199C 1231.66,200.825 1240.49,206.325 1247,215.5C 1248.43,212.139 1250.59,211.639 1253.5,214C 1258.33,220.167 1263.83,225.667 1270,230.5C 1274.94,237.835 1277.78,245.835 1278.5,254.5 Z M 528.5,234.5 C 534.753,234.209 540.753,235.209 546.5,237.5C 540.527,252.503 529.86,261.503 514.5,264.5C 517.568,255.462 520.735,246.462 524,237.5C 525.31,236.103 526.81,235.103 528.5,234.5 Z M 1201.5,237.5 C 1208.26,237.387 1214.92,238.053 1221.5,239.5C 1219.15,269.51 1208.99,296.51 1191,320.5C 1184.57,327.377 1177.24,333.043 1169,337.5C 1179.51,304.143 1190.34,270.81 1201.5,237.5 Z M 685.5,278.5 C 686.124,278.917 686.457,279.584 686.5,280.5C 685.722,282.147 684.556,283.48 683,284.5C 683.451,282.48 684.284,280.48 685.5,278.5 Z M 952.5,290.5 C 954.01,291.728 955.51,291.728 957,290.5C 957.667,292.5 958.333,294.5 959,296.5C 960.011,297.337 961.178,297.67 962.5,297.5C 962.281,298.675 962.614,299.675 963.5,300.5C 965.101,301.165 966.601,301.499 968,301.5C 968.233,303.78 969.066,305.78 970.5,307.5C 967.235,316.796 964.068,326.13 961,335.5C 953.589,341.122 946.089,346.622 938.5,352C 937.107,353.171 936.273,354.671 936,356.5C 934.961,354.254 933.794,352.087 932.5,350C 939.864,330.407 946.531,310.574 952.5,290.5 Z M 1031.5,301.5 C 1037.17,301.5 1042.83,301.5 1048.5,301.5C 1048.33,302.822 1048.66,303.989 1049.5,305C 1052.63,305.875 1055.63,307.042 1058.5,308.5C 1059.52,310.432 1059.69,312.432 1059,314.5C 1050.37,327.471 1038.37,335.137 1023,337.5C 1021.83,337.167 1020.67,336.833 1019.5,336.5C 1023.51,324.805 1027.51,313.138 1031.5,301.5 Z M 500.5,311.5 C 501.833,311.5 503.167,311.5 504.5,311.5C 504.035,333.16 501.535,354.493 497,375.5C 493.164,367.162 489.331,358.828 485.5,350.5C 489.764,338.209 493.93,325.876 498,313.5C 498.995,312.934 499.828,312.267 500.5,311.5 Z M 821.5,329.5 C 821.632,339.916 821.632,350.249 821.5,360.5C 819.283,356.733 817.617,352.733 816.5,348.5C 817.969,342.097 819.635,335.764 821.5,329.5 Z"/></g>
<g><path style="opacity:1" fill="#6506cb" d="M 518.5,200.5 C 527.506,200.334 536.506,200.5 545.5,201C 557.66,202.33 567.826,207.496 576,216.5C 580.304,223.975 580.638,231.642 577,239.5C 569.708,254.247 558.541,265.08 543.5,272C 537.268,274.466 530.934,276.633 524.5,278.5C 524.82,305.967 532.154,331.467 546.5,355C 532.148,360.342 518.148,366.509 504.5,373.5C 504.167,372.667 503.833,371.833 503.5,371C 508.405,345.379 510.238,319.546 509,293.5C 508.311,292.643 507.478,291.977 506.5,291.5C 498.573,294.101 490.74,296.768 483,299.5C 478.707,313.38 474.207,327.213 469.5,341C 471.768,345.007 473.268,349.174 474,353.5C 471.81,351.612 469.977,349.445 468.5,347C 467.207,346.51 465.873,346.343 464.5,346.5C 464.387,349.049 465.054,351.382 466.5,353.5C 451.178,354.666 435.844,354.833 420.5,354C 425.575,349.713 430.742,345.547 436,341.5C 441.083,328.419 445.25,315.085 448.5,301.5C 443.938,301.464 439.604,302.464 435.5,304.5C 434.289,303.726 434.289,302.893 435.5,302C 440.46,300.344 445.46,298.844 450.5,297.5C 452.439,295.878 452.772,294.044 451.5,292C 446.048,291.86 440.715,292.693 435.5,294.5C 435.167,294.167 434.833,293.833 434.5,293.5C 437.043,289.579 439.71,285.746 442.5,282C 446.833,281.667 451.167,281.333 455.5,281C 456.701,280.097 457.535,278.931 458,277.5C 463.469,260.759 469.136,244.092 475,227.5C 475.808,225.421 475.641,223.421 474.5,221.5C 472.37,220.533 470.37,219.366 468.5,218C 484.18,209.088 500.847,203.255 518.5,200.5 Z M 528.5,234.5 C 526.81,235.103 525.31,236.103 524,237.5C 520.735,246.462 517.568,255.462 514.5,264.5C 529.86,261.503 540.527,252.503 546.5,237.5C 540.753,235.209 534.753,234.209 528.5,234.5 Z"/></g>
<g><path style="opacity:1" fill="#4767c5" d="M 1118.5,202.5 C 1078,202.168 1037.66,202.501 997.5,203.5C 996.957,203.44 996.624,203.107 996.5,202.5C 1017,202.167 1037.5,201.833 1058,201.5C 1078.91,201.494 1099.07,201.828 1118.5,202.5 Z"/></g>
<g><path style="opacity:1" fill="#6507cb" d="M 316.5,203.5 C 332.661,202.338 348.995,202.172 365.5,203C 359.312,208.19 353.479,213.69 348,219.5C 337,251.833 326,284.167 315,316.5C 311.94,323.879 311.94,331.212 315,338.5C 316.719,340.557 318.719,342.224 321,343.5C 322.5,343.333 323.333,342.5 323.5,341C 322.349,339.177 321.182,337.344 320,335.5C 319.242,329.109 319.576,322.776 321,316.5C 331.803,284.425 342.803,252.425 354,220.5C 358.255,216.144 363.088,212.977 368.5,211C 364.667,214.167 360.833,217.333 357,220.5C 345.799,253.104 334.799,285.77 324,318.5C 323.333,323.833 323.333,329.167 324,334.5C 326.643,338.124 328.81,341.957 330.5,346C 341.991,347.434 352.991,345.768 363.5,341C 369.876,334.599 374.709,327.099 378,318.5C 389.995,286.017 401.495,253.35 412.5,220.5C 409.772,214.712 406.772,209.045 403.5,203.5C 417.488,202.334 431.488,202.167 445.5,203C 439.448,208.053 433.115,212.719 426.5,217C 424.951,218.214 423.785,219.714 423,221.5C 413.864,249.241 404.531,276.907 395,304.5C 391.473,314.552 387.14,324.219 382,333.5C 362.34,353.979 338.507,361.146 310.5,355C 293.664,350.508 287.164,339.675 291,322.5C 291.667,319.167 292.333,315.833 293,312.5C 303.354,280.958 313.854,249.458 324.5,218C 322.387,212.756 319.72,207.923 316.5,203.5 Z"/></g>
<g><path style="opacity:1" fill="#6408cb" d="M 737.5,257.5 C 738.167,261.833 738.833,266.167 739.5,270.5C 739.5,273.5 739.5,276.5 739.5,279.5C 732.696,279.064 726.029,279.73 719.5,281.5C 718.602,301.164 718.768,320.831 720,340.5C 721.396,342.527 723.062,342.86 725,341.5C 724.809,323.157 724.976,304.823 725.5,286.5C 732.364,285.851 739.198,285.184 746,284.5C 745.603,278.705 745.103,272.872 744.5,267C 744.391,264.3 744.891,261.8 746,259.5C 746.414,259.957 746.914,260.291 747.5,260.5C 748.516,270.145 749.183,279.812 749.5,289.5C 741.912,289.083 734.412,289.083 727,289.5C 727.268,306.856 728.268,324.189 730,341.5C 732.591,345.027 734.591,348.694 736,352.5C 733.981,349.288 731.147,347.622 727.5,347.5C 727.104,350.044 727.771,352.211 729.5,354C 712.167,354.667 694.833,354.667 677.5,354C 682.642,350.358 687.642,346.525 692.5,342.5C 693.666,330.848 693.833,319.181 693,307.5C 691.933,306.809 690.766,306.309 689.5,306C 692.306,304.695 693.14,302.528 692,299.5C 691.439,298.978 690.772,298.645 690,298.5C 679.118,305.875 668.951,314.208 659.5,323.5C 656.578,316.574 653.745,309.574 651,302.5C 650.632,301.09 649.799,300.09 648.5,299.5C 639.133,309.552 632.299,321.218 628,334.5C 627.306,343.431 629.306,351.764 634,359.5C 634.494,361.134 634.66,362.801 634.5,364.5C 613.5,364.5 592.5,364.5 571.5,364.5C 571.5,363.5 571.5,362.5 571.5,361.5C 590.41,361.826 609.243,361.493 628,360.5C 628.536,358.433 628.036,356.599 626.5,355C 608.167,354.667 589.833,354.333 571.5,354C 594.287,340.214 612.787,322.047 627,299.5C 630.299,294.4 633.465,289.234 636.5,284C 636.355,283.228 636.022,282.561 635.5,282C 631.46,279.573 627.126,277.906 622.5,277C 628.068,271.268 633.068,265.101 637.5,258.5C 638.002,257.479 638.668,257.312 639.5,258C 641.654,261.975 644.32,265.475 647.5,268.5C 649.707,268.119 651.04,266.786 651.5,264.5C 649.477,261.131 646.977,258.131 644,255.5C 643.691,253.609 644.525,252.275 646.5,251.5C 649.42,253.833 651.753,256.667 653.5,260C 654.996,260.507 656.163,260.007 657,258.5C 666.581,245.007 675.914,231.34 685,217.5C 684.027,212.409 682.527,207.409 680.5,202.5C 696.837,202.333 713.17,202.5 729.5,203C 724.699,206.799 720.199,210.966 716,215.5C 716.083,232.837 716.583,250.17 717.5,267.5C 719.722,267.822 721.556,267.155 723,265.5C 723.026,252.328 722.526,239.161 721.5,226C 721.833,223.5 722.167,221 722.5,218.5C 728.147,214.021 733.647,209.354 739,204.5C 739.667,205.167 739.667,205.833 739,206.5C 734.667,210.167 730.333,213.833 726,217.5C 725.333,231.833 725.333,246.167 726,260.5C 726.388,261.428 727.055,262.095 728,262.5C 731.099,260.701 734.265,259.034 737.5,257.5 Z M 685.5,278.5 C 684.284,280.48 683.451,282.48 683,284.5C 684.556,283.48 685.722,282.147 686.5,280.5C 686.457,279.584 686.124,278.917 685.5,278.5 Z"/></g>
<g><path style="opacity:1" fill="#6407cb" d="M 923.5,356.5 C 921.164,353.665 918.664,350.998 916,348.5C 913.41,349.687 912.91,351.52 914.5,354C 898.833,354.667 883.167,354.667 867.5,354C 873.092,349.62 878.592,345.12 884,340.5C 892.136,315.759 900.469,291.092 909,266.5C 909.253,263.8 909.253,261.133 909,258.5C 913.662,252.206 916.995,245.206 919,237.5C 919.422,231.879 917.755,231.212 914,235.5C 888.03,274.969 861.863,314.303 835.5,353.5C 832.572,354.484 829.572,354.817 826.5,354.5C 827.849,322.826 829.016,291.159 830,259.5C 828.413,258.273 827.079,258.606 826,260.5C 817.993,284.51 809.993,308.51 802,332.5C 801.333,336.167 801.333,339.833 802,343.5C 805.104,349.899 807.604,356.565 809.5,363.5C 789.178,364.5 768.844,364.833 748.5,364.5C 748.5,363.5 748.5,362.5 748.5,361.5C 767.743,361.826 786.91,361.493 806,360.5C 806.561,357.702 805.394,355.869 802.5,355C 786.167,354.667 769.833,354.333 753.5,354C 762.276,350.2 770.11,345.033 777,338.5C 781.113,332.609 784.446,326.276 787,319.5C 798.5,285.667 810,251.833 821.5,218C 818.841,213.016 816.174,208.016 813.5,203C 831.833,202.333 850.167,202.333 868.5,203C 861.991,207.85 855.824,213.016 850,218.5C 849.438,251.171 849.105,283.838 849,316.5C 849.561,317.022 850.228,317.355 851,317.5C 853.733,315.046 855.733,312.046 857,308.5C 857.333,278.833 857.667,249.167 858,219.5C 863.455,215.361 869.288,212.194 875.5,210C 870.037,213.142 864.87,216.642 860,220.5C 859.274,247.501 858.941,274.501 859,301.5C 860.938,302.86 862.604,302.527 864,300.5C 882.878,273.242 901.378,245.742 919.5,218C 917.158,212.985 914.825,207.985 912.5,203C 930.5,202.333 948.5,202.333 966.5,203C 960.667,208.167 954.833,213.333 949,218.5C 934.969,258.925 921.136,299.425 907.5,340C 908.385,343.178 910.218,344.011 913,342.5C 926.973,302.053 940.806,261.553 954.5,221C 960.009,216.584 966.009,213.25 972.5,211C 968.102,214.394 963.435,217.394 958.5,220C 944.242,259.773 930.575,299.773 917.5,340C 919.373,345.574 921.373,351.074 923.5,356.5 Z"/></g>
<g><path style="opacity:1" fill="#6506cb" d="M 1118.5,202.5 C 1107.47,213.362 1096.97,224.695 1087,236.5C 1086.53,235.069 1085.7,233.903 1084.5,233C 1079.85,229.696 1075.19,226.363 1070.5,223C 1060.54,221.538 1050.54,221.205 1040.5,222C 1040,222.5 1039.5,223 1039,223.5C 1034.27,237.204 1029.43,250.871 1024.5,264.5C 1024.83,265.167 1025.17,265.833 1025.5,266.5C 1032.14,267.664 1038.81,267.831 1045.5,267C 1051.83,262.167 1058.17,257.333 1064.5,252.5C 1061.25,266.259 1056.92,279.925 1051.5,293.5C 1050,291.167 1048.5,288.833 1047,286.5C 1046.28,285.941 1045.44,285.608 1044.5,285.5C 1035.28,286.127 1026.12,286.794 1017,287.5C 1010.73,305.463 1004.57,323.463 998.5,341.5C 1026.42,347.796 1048.59,339.13 1065,315.5C 1065.29,327.98 1067.79,339.98 1072.5,351.5C 1031.17,352.833 989.833,352.833 948.5,351.5C 954.122,347.718 959.622,343.718 965,339.5C 970.932,322.537 976.765,305.537 982.5,288.5C 981.652,287.009 980.319,286.342 978.5,286.5C 973.035,287.938 967.701,289.438 962.5,291C 968.959,286.938 975.959,284.272 983.5,283C 986.633,278.791 985.466,276.958 980,277.5C 974.613,277.972 969.446,279.305 964.5,281.5C 964.167,281.167 963.833,280.833 963.5,280.5C 970.525,272.239 979.359,267.239 990,265.5C 995.5,249.667 1001,233.833 1006.5,218C 1003.69,213.027 1000.69,208.193 997.5,203.5C 1037.66,202.501 1078,202.168 1118.5,202.5 Z"/></g>
<g><path style="opacity:1" fill="#6505cb" d="M 1151.5,202.5 C 1171.84,202.333 1192.17,202.5 1212.5,203C 1232.64,205.134 1245.47,215.967 1251,235.5C 1251.95,270.996 1240.45,301.83 1216.5,328C 1201.42,342.537 1183.42,351.204 1162.5,354C 1141.17,354.667 1119.83,354.667 1098.5,354C 1102.83,351 1107.17,348 1111.5,345C 1113.05,343.786 1114.22,342.286 1115,340.5C 1128.67,300.167 1142.33,259.833 1156,219.5C 1156.67,217.833 1156.67,216.167 1156,214.5C 1154.39,210.515 1152.89,206.515 1151.5,202.5 Z M 1201.5,237.5 C 1190.34,270.81 1179.51,304.143 1169,337.5C 1177.24,333.043 1184.57,327.377 1191,320.5C 1208.99,296.51 1219.15,269.51 1221.5,239.5C 1214.92,238.053 1208.26,237.387 1201.5,237.5 Z"/></g>
<g><path style="opacity:1" fill="#5832c8" d="M 448.5,211.5 C 449.002,209.915 450.002,209.415 451.5,210C 450.756,211.039 449.756,211.539 448.5,211.5 Z"/></g>
<g><path style="opacity:1" fill="#4470c4" d="M 512.5,209.5 C 521.994,208.895 531.328,209.729 540.5,212C 547.26,215.034 550.926,220.201 551.5,227.5C 550.07,227.579 548.736,227.246 547.5,226.5C 543.582,221.038 538.249,217.871 531.5,217C 523.689,216.29 516.022,216.956 508.5,219C 501.697,238.41 494.697,257.743 487.5,277C 485.075,277.986 483.409,277.319 482.5,275C 489.136,254.759 495.969,234.592 503,214.5C 505.907,212.132 509.074,210.465 512.5,209.5 Z"/></g>
<g><path style="opacity:1" fill="#456fc4" d="M 1032.5,212.5 C 1044.17,212.333 1055.84,212.5 1067.5,213C 1072.95,213.189 1077.28,215.356 1080.5,219.5C 1080,220.881 1079,221.547 1077.5,221.5C 1074.93,220.383 1072.26,219.55 1069.5,219C 1058.83,218.333 1048.17,218.333 1037.5,219C 1032.01,234.817 1026.51,250.65 1021,266.5C 1015.67,268.833 1013.67,267.167 1015,261.5C 1020.56,244.991 1026.39,228.658 1032.5,212.5 Z"/></g>
<g><path style="opacity:1" fill="#446fc4" d="M 1181.5,212.5 C 1190.95,212.105 1200.28,212.938 1209.5,215C 1210.38,216.356 1210.71,217.856 1210.5,219.5C 1202.25,219.184 1194.08,219.518 1186,220.5C 1171.61,261.017 1157.61,301.684 1144,342.5C 1143.59,344.41 1142.43,345.41 1140.5,345.5C 1138.73,345.566 1137.73,344.732 1137.5,343C 1152.27,299.514 1166.94,256.014 1181.5,212.5 Z"/></g>
<g><path style="opacity:0.986" fill="#4471c4" d="M 512.5,219.5 C 527.543,217.572 540.709,221.572 552,231.5C 550.901,245.848 544.068,256.681 531.5,264C 519.347,270.723 506.514,274.557 493,275.5C 492.333,274.167 492.333,272.833 493,271.5C 498.864,254.908 504.531,238.241 510,221.5C 510.995,220.934 511.828,220.267 512.5,219.5 Z M 528.5,234.5 C 526.81,235.103 525.31,236.103 524,237.5C 520.735,246.462 517.568,255.462 514.5,264.5C 529.86,261.503 540.527,252.503 546.5,237.5C 540.753,235.209 534.753,234.209 528.5,234.5 Z"/></g>
<g><path style="opacity:1" fill="#611aca" d="M 448.5,211.5 C 443.156,215.601 437.656,219.601 432,223.5C 420.258,258.394 407.925,293.061 395,327.5C 391.919,333.331 388.585,338.998 385,344.5C 382.234,347.777 379.067,350.443 375.5,352.5C 383.41,343.7 389.577,333.7 394,322.5C 405.796,289.613 417.296,256.613 428.5,223.5C 434.891,218.974 441.557,214.974 448.5,211.5 Z"/></g>
<g><path style="opacity:1" fill="#5c2cc9" d="M 1095.5,237.5 C 1103.07,227.097 1111.9,217.764 1122,209.5C 1122.67,210.167 1122.67,210.833 1122,211.5C 1113.35,220.314 1104.52,228.981 1095.5,237.5 Z"/></g>
<g><path style="opacity:0.98" fill="#4471c4" d="M 1188.5,222.5 C 1196.96,222.119 1205.29,222.953 1213.5,225C 1217.81,225.903 1221.64,227.737 1225,230.5C 1227.37,246.225 1225.71,261.559 1220,276.5C 1213.72,297.237 1203.22,315.404 1188.5,331C 1177.28,341.629 1163.95,346.295 1148.5,345C 1147.42,343.274 1147.26,341.441 1148,339.5C 1161.41,300.434 1174.91,261.434 1188.5,222.5 Z M 1201.5,237.5 C 1190.34,270.81 1179.51,304.143 1169,337.5C 1177.24,333.043 1184.57,327.377 1191,320.5C 1208.99,296.51 1219.15,269.51 1221.5,239.5C 1214.92,238.053 1208.26,237.387 1201.5,237.5 Z"/></g>
<g><path style="opacity:1" fill="#456fc4" d="M 683.5,246.5 C 675.837,256.177 668.503,266.177 661.5,276.5C 665.831,283.662 669.498,291.162 672.5,299C 671.092,301.958 668.925,302.792 666,301.5C 663.476,293.248 659.809,285.581 655,278.5C 654.333,277.167 654.333,275.833 655,274.5C 665.333,259.167 675.667,243.833 686,228.5C 687.11,226.963 688.61,226.297 690.5,226.5C 690.737,230.273 690.237,233.94 689,237.5C 686.642,240.222 684.809,243.222 683.5,246.5 Z"/></g>
<g><path style="opacity:1" fill="#456fc4" d="M 826.5,230.5 C 830.225,230.78 831.392,232.78 830,236.5C 820.604,267.021 810.604,297.354 800,327.5C 797.615,332.852 797.115,338.352 798.5,344C 798.3,347.285 796.8,348.118 794,346.5C 791.949,338.76 792.283,331.093 795,323.5C 805.61,292.503 816.11,261.503 826.5,230.5 Z"/></g>
<g><path style="opacity:1" fill="#5734c8" d="M 1095.5,237.5 C 1094.97,239.544 1093.8,241.211 1092,242.5C 1092.08,240.228 1093.24,238.562 1095.5,237.5 Z"/></g>
<g><path style="opacity:0.992" fill="#4471c4" d="M 683.5,246.5 C 685.5,245.024 687.167,243.191 688.5,241C 689.449,240.383 690.282,240.549 691,241.5C 691.833,256.178 691.666,270.845 690.5,285.5C 686.141,288.866 681.808,292.2 677.5,295.5C 676.558,295.392 675.725,295.059 675,294.5C 672.422,287.682 669.588,281.016 666.5,274.5C 672.174,265.149 677.84,255.816 683.5,246.5 Z M 685.5,278.5 C 684.284,280.48 683.451,282.48 683,284.5C 684.556,283.48 685.722,282.147 686.5,280.5C 686.457,279.584 686.124,278.917 685.5,278.5 Z"/></g>
<g><path style="opacity:1" fill="#6119ca" d="M 1072.5,249.5 C 1073.5,249.47 1074.16,249.97 1074.5,251C 1069,267.5 1063.5,284 1058,300.5C 1056.82,301.731 1055.65,301.731 1054.5,300.5C 1060.51,283.472 1066.51,266.472 1072.5,249.5 Z"/></g>
<g><path style="opacity:1" fill="#4e4ec6" d="M 737.5,257.5 C 737.56,256.957 737.893,256.624 738.5,256.5C 739.493,261.12 739.827,265.786 739.5,270.5C 738.833,266.167 738.167,261.833 737.5,257.5 Z"/></g>
<g><path style="opacity:1" fill="#456fc4" d="M 1009.5,277.5 C 1020.17,277.333 1030.84,277.5 1041.5,278C 1042.55,279.388 1042.72,280.888 1042,282.5C 1033,283.167 1024,283.833 1015,284.5C 1008.33,303.833 1001.67,323.167 995,342.5C 989.934,345.894 987.934,344.56 989,338.5C 995.742,318.106 1002.58,297.773 1009.5,277.5 Z"/></g>
<g><path style="opacity:1" fill="#611aca" d="M 561.5,354.5 C 551.903,347.719 545.069,338.719 541,327.5C 535.547,313.327 532.88,298.66 533,283.5C 551.308,277.841 566.308,267.507 578,252.5C 582.804,244.161 585.47,235.161 586,225.5C 588.18,232.704 587.513,239.704 584,246.5C 579.029,256.808 571.862,265.308 562.5,272C 554.323,276.839 545.823,281.005 537,284.5C 536.547,310.979 544.713,334.312 561.5,354.5 Z"/></g>
<g><path style="opacity:1" fill="#4470c4" d="M 504.5,282.5 C 505.822,282.33 506.989,282.663 508,283.5C 508.758,285.769 508.591,287.936 507.5,290C 499.1,292.483 490.6,294.316 482,295.5C 476.469,311.092 471.136,326.759 466,342.5C 461.532,343.963 459.865,342.297 461,337.5C 466.667,321.167 472.333,304.833 478,288.5C 486.966,286.7 495.799,284.7 504.5,282.5 Z"/></g>
<g><path style="opacity:1" fill="#456fc4" d="M 642.5,290.5 C 647.213,290.468 648.713,292.801 647,297.5C 635.935,311.321 627.268,326.321 621,342.5C 619.089,341.218 618.256,339.385 618.5,337C 618.967,332.633 620.133,328.466 622,324.5C 629.107,313.277 635.941,301.944 642.5,290.5 Z"/></g>
<g><path style="opacity:1" fill="#514ec6" d="M 678.5,314.5 C 679.239,314.369 679.906,314.536 680.5,315C 675.5,320 670.5,325 665.5,330C 664.833,330.667 664.167,330.667 663.5,330C 668.703,324.965 673.703,319.798 678.5,314.5 Z"/></g>
<g><path style="opacity:1" fill="#6119ca" d="M 1253.5,221.5 C 1257.89,226.278 1260.72,231.945 1262,238.5C 1261.06,277.339 1246.89,310.505 1219.5,338C 1199.68,354.723 1176.68,363.39 1150.5,364C 1132.84,364.5 1115.17,364.667 1097.5,364.5C 1097.5,363.5 1097.5,362.5 1097.5,361.5C 1114.84,361.667 1132.17,361.5 1149.5,361C 1185.81,360.765 1214.31,345.931 1235,316.5C 1251.3,291.93 1259.3,264.93 1259,235.5C 1257.43,230.7 1255.6,226.034 1253.5,221.5 Z"/></g>
<g><path style="opacity:1" fill="#5f22ca" d="M 863.5,323.5 C 864.525,323.897 864.692,324.563 864,325.5C 855.304,338.03 846.804,350.697 838.5,363.5C 834.555,364.491 830.555,364.824 826.5,364.5C 826.5,363.5 826.5,362.5 826.5,361.5C 830.437,361.793 834.27,361.46 838,360.5C 846.51,348.138 855.01,335.804 863.5,323.5 Z"/></g>
<g><path style="opacity:1" fill="#533fc8" d="M 180.5,348.5 C 181.043,348.56 181.376,348.893 181.5,349.5C 168.833,349.833 156.167,350.167 143.5,350.5C 130.426,350.509 118.093,350.176 106.5,349.5C 131.339,349.831 156.006,349.498 180.5,348.5 Z"/></g>
<g><path style="opacity:1" fill="#5245c7" d="M 948.5,351.5 C 989.833,352.833 1031.17,352.833 1072.5,351.5C 1073.04,351.56 1073.38,351.893 1073.5,352.5C 1031.17,353.667 988.837,353.833 946.5,353C 947.044,352.283 947.711,351.783 948.5,351.5 Z"/></g>
<g><path style="opacity:1" fill="#630acb" d="M 476.5,359.5 C 478.384,360.382 479.717,361.882 480.5,364C 460.836,364.5 441.169,364.667 421.5,364.5C 421.5,363.5 421.5,362.5 421.5,361.5C 440.197,362.154 458.53,361.487 476.5,359.5 Z"/></g>
<g><path style="opacity:1" fill="#630ccb" d="M 740.5,359.5 C 742.257,360.292 743.591,361.625 744.5,363.5C 722.51,364.5 700.51,364.833 678.5,364.5C 678.5,363.5 678.5,362.5 678.5,361.5C 698.836,361.667 719.169,361.5 739.5,361C 740.056,360.617 740.389,360.117 740.5,359.5 Z"/></g>
<g><path style="opacity:1" fill="#630dcb" d="M 923.5,356.5 C 925.059,358.608 926.392,360.941 927.5,363.5C 907.178,364.5 886.844,364.833 866.5,364.5C 866.5,363.5 866.5,362.5 866.5,361.5C 885.17,361.667 903.836,361.5 922.5,361C 923.38,359.644 923.714,358.144 923.5,356.5 Z"/></g>
<g><path style="opacity:1" fill="#5f22ca" d="M 375.5,352.5 C 366.953,359.935 356.953,364.435 345.5,366C 328.358,369.979 312.691,366.979 298.5,357C 302.676,358.622 307.01,360.289 311.5,362C 334.109,366.509 355.442,363.342 375.5,352.5 Z"/></g>
<g><path style="opacity:1" fill="#630dcb" d="M 1073.5,321.5 C 1074.5,321.5 1075.5,321.5 1076.5,321.5C 1078.07,332.717 1081.74,343.217 1087.5,353C 1085.27,357.236 1082.27,360.903 1078.5,364C 1035.5,364.5 992.501,364.667 949.5,364.5C 949.5,363.5 949.5,362.5 949.5,361.5C 992.501,361.667 1035.5,361.5 1078.5,361C 1081.39,359.608 1083.39,357.441 1084.5,354.5C 1081.16,349.149 1078.32,343.482 1076,337.5C 1074.63,332.24 1073.8,326.907 1073.5,321.5 Z"/></g>
<g><path style="opacity:1" fill="#5c27c9" d="M 561.5,354.5 C 563.791,355.542 564.791,357.042 564.5,359C 544.786,364.348 525.953,371.848 508,381.5C 507.833,381.167 507.667,380.833 507.5,380.5C 524.073,370.696 541.74,363.53 560.5,359C 561.38,357.644 561.714,356.144 561.5,354.5 Z"/></g>
</svg>
