<?xml version="1.0" standalone="no"?>
<!DOCTYPE svg PUBLIC "-//W3C//DTD SVG 20010904//EN"
 "http://www.w3.org/TR/2001/REC-SVG-20010904/DTD/svg10.dtd">
<svg version="1.0" xmlns="http://www.w3.org/2000/svg"
 width="1209.000000pt" height="1124.000000pt" viewBox="0 0 1209.000000 1124.000000"
 preserveAspectRatio="xMidYMid meet">

<g transform="translate(0.000000,1124.000000) scale(0.100000,-0.100000)"
fill="#000000" stroke="none">
<path d="M5845 11234 c-718 -27 -1389 -156 -2025 -392 -1377 -510 -2496 -1459
-3169 -2690 -351 -642 -568 -1366 -632 -2112 -17 -187 -17 -653 0 -840 72
-839 336 -1644 769 -2350 952 -1550 2633 -2594 4517 -2804 269 -30 432 -39
740 -38 320 0 495 9 770 42 1667 197 3164 1031 4151 2311 635 824 1016 1802
1105 2839 17 187 17 653 0 840 -64 746 -281 1470 -632 2112 -963 1760 -2828
2920 -4934 3067 -161 12 -527 20 -660 15z m6075 -6702 c0 -4 -16 -72 -35 -151
-304 -1238 -1041 -2326 -2115 -3123 -766 -568 -1690 -956 -2660 -1118 -385
-64 -640 -84 -1065 -84 -425 0 -680 20 -1065 84 -1535 256 -2902 1061 -3816
2250 -393 511 -700 1106 -883 1711 -37 123 -111 411 -111 431 0 4 2644 8 5875
8 3231 0 5875 -4 5875 -8z"/>
</g>
</svg>
