<?xml version="1.0" standalone="no"?>
<!DOCTYPE svg PUBLIC "-//W3C//DTD SVG 20010904//EN"
 "http://www.w3.org/TR/2001/REC-SVG-20010904/DTD/svg10.dtd">
<svg version="1.0" xmlns="http://www.w3.org/2000/svg"
 width="300.000000pt" height="211.000000pt" viewBox="0 0 300.000000 211.000000"
 preserveAspectRatio="xMidYMid meet">
<metadata>
Created by potrace 1.10, written by Peter Selinger 2001-2011
</metadata>
<g transform="translate(0.000000,211.000000) scale(0.100000,-0.100000)"
fill="#833f3f" stroke="none">
<path d="M2152 2005 c-12 -55 -44 -212 -72 -350 -28 -137 -59 -290 -70 -340
-11 -49 -23 -100 -25 -113 -3 -12 -7 -32 -10 -45 -3 -12 -7 -35 -10 -52 -2
-16 -7 -41 -10 -55 -3 -14 -8 -36 -10 -50 -2 -14 -7 -36 -10 -50 -4 -14 -7
-32 -7 -40 0 -8 -4 -19 -8 -25 -9 -13 -13 -91 -4 -83 3 4 21 83 39 175 18 92
43 201 55 242 12 41 23 88 25 105 2 17 22 119 45 226 23 107 43 206 46 220 12
66 66 306 71 310 2 3 69 6 149 8 110 2 144 0 144 -10 0 -9 3 -9 12 0 14 14 62
16 53 2 -5 -9 32 -223 90 -505 13 -66 38 -190 54 -275 17 -85 44 -220 61 -300
17 -80 35 -170 41 -200 6 -30 12 -59 13 -65 4 -17 25 -118 31 -145 3 -14 28
-133 55 -264 28 -131 49 -240 47 -242 -2 -2 -29 28 -61 66 -32 39 -61 70 -64
70 -2 0 0 -6 5 -13 6 -6 40 -52 78 -102 68 -90 92 -114 81 -79 -9 32 -32 141
-120 574 -109 533 -208 1011 -241 1170 -14 69 -32 154 -39 190 -7 36 -13 68
-14 73 -4 17 -5 23 -6 42 -1 19 -10 20 -197 25 l-197 5 -20 -100z"/>
<path d="M1154 1607 c-60 -87 -714 -1016 -756 -1072 -70 -96 -368 -518 -368
-521 0 -2 182 -4 405 -4 240 0 405 4 405 9 0 5 -69 10 -157 11 -87 0 -225 3
-308 5 -82 2 -183 4 -223 4 l-72 1 26 43 c15 23 30 44 33 47 4 3 24 32 46 65
22 33 45 65 50 71 6 7 35 51 65 98 30 47 94 139 143 204 48 64 108 147 133
185 26 37 51 67 55 67 5 0 9 4 9 10 0 9 193 284 275 392 19 25 68 95 108 155
75 112 118 174 127 183 3 3 14 18 24 34 10 15 21 24 26 20 4 -5 26 -72 49
-149 23 -77 57 -187 76 -245 99 -312 125 -401 120 -410 -3 -6 -2 -10 2 -10 7
0 26 -51 40 -105 1 -5 20 -62 41 -125 39 -114 135 -412 148 -460 8 -32 -4 -16
-254 310 -15 19 -41 51 -59 70 l-31 35 -26 -24 c-14 -13 -101 -125 -193 -247
-147 -197 -170 -224 -194 -224 -42 0 -42 -15 -1 -17 20 -1 39 3 43 9 18 28
365 477 369 477 3 0 88 -110 190 -244 172 -227 221 -280 206 -222 -3 12 -119
375 -257 807 -138 432 -251 795 -251 808 -1 41 -14 32 -64 -41z"/>
<path d="M1247 1613 c39 -61 224 -307 235 -311 5 -2 8 -10 8 -17 0 -7 4 -15 8
-17 5 -1 28 -30 53 -63 24 -33 70 -94 102 -135 71 -92 66 -87 102 -135 17 -22
41 -52 54 -67 53 -61 69 -97 59 -142 -4 -22 -10 -54 -12 -71 -3 -16 -7 -41
-10 -55 -14 -61 -37 -212 -34 -215 9 -9 88 398 80 409 -57 76 -381 496 -500
649 -143 184 -187 235 -145 170z"/>
<path d="M2344 583 c-105 -150 -107 -153 -97 -152 4 0 37 41 73 91 36 50 77
105 92 122 24 28 28 29 40 14 243 -307 352 -439 316 -382 -16 25 -329 434
-332 434 -1 0 -42 -57 -92 -127z"/>
<path d="M2188 376 c-10 -13 -34 -53 -54 -88 -21 -34 -41 -64 -46 -66 -4 -2
-8 -8 -8 -13 0 -4 -22 -46 -49 -92 l-49 -83 -102 -2 c-56 -1 -105 0 -109 3 -5
2 -2 37 6 77 7 40 12 80 11 87 -2 8 -13 -31 -24 -87 l-21 -102 126 0 126 0
109 185 c60 102 110 185 112 185 4 0 218 -300 239 -335 l20 -35 85 1 c72 1 79
3 45 10 -22 4 -59 8 -82 8 -41 1 -43 2 -97 83 -84 128 -187 272 -200 280 -16
11 -19 10 -38 -16z"/>
<path d="M2717 23 c-3 -4 49 -9 115 -11 66 -1 117 1 114 6 -7 11 -222 16 -229
5z"/>
</g>
</svg>
